<svg width="523" height="520" viewBox="0 0 523 520" fill="none" xmlns="http://www.w3.org/2000/svg">
<path d="M183.809 106.882L143.185 28.7893C75.4746 64.3364 25.6968 129.775 11.4384 207.863L100.067 224.265C108.004 173.205 139.878 130.104 183.809 106.882Z" fill="#FFCC00"/>
<path d="M98.1375 249.246C98.1375 240.749 98.8022 232.406 100.067 224.265L11.4384 207.863C8.88802 221.86 7.45773 236.252 7.28448 250.95C7.05081 271.53 9.26273 291.551 13.6422 310.754L103.359 290.071C99.9505 277.034 98.1375 263.358 98.1375 249.246Z" fill="#F28D00"/>
<path d="M103.355 290.075L13.6422 310.754C19.9435 338.377 30.7491 364.306 45.2493 387.711L124.861 338.179C115.224 323.638 107.88 307.43 103.355 290.075Z" fill="#F7A600"/>
<path d="M124.861 338.179L45.2493 387.711C56.9978 406.685 71.1636 424.024 87.3358 439.237C43.8714 452.848 0 459.16 0 459.16C1.80095 460.891 51.2686 494.62 128.927 510.755L188.616 394.052C162.701 381.455 140.687 362.066 124.861 338.179Z" fill="#EA5A06"/>
<path d="M258.341 410.037C233.349 410.037 209.691 404.303 188.616 394.052L128.927 510.755C166.775 518.62 211.303 522.316 260.279 516.08V410.017C259.634 410.029 258.99 410.037 258.341 410.037Z" fill="#F7A600"/>
<path d="M260.279 410.017V516.08C283.196 513.177 307.087 508.086 331.712 500.253L331.672 500.083C353.521 493.621 374.162 484.143 393.138 472.157L341.221 386.87C317.555 401.266 289.884 409.661 260.279 410.017Z" fill="#94C11C"/>
<path d="M418.548 249.246C418.548 307.604 387.574 358.701 341.221 386.87L393.146 472.161C429.117 449.443 459.14 417.692 480.192 380.206L480.321 379.951C500.792 343.367 512.758 301.353 513.265 256.891C513.487 237.503 511.537 218.61 507.653 200.435L415.95 220.266C417.65 229.669 418.548 239.357 418.548 249.246Z" fill="#C8D400"/>
<path d="M263.248 0.0176043C219.937 -0.489079 179.051 9.96159 143.185 28.7893L183.809 106.882C206.069 95.1231 231.427 88.4412 258.341 88.4412C336.962 88.4412 402.356 145.284 415.95 220.266L507.653 200.435C483.427 87.0429 383.658 1.41957 263.248 0.0176043Z" fill="#E8E000"/>
<path d="M251.56 237.905L205.558 168.708H126.928L238.083 340.654L302.567 340.46C337.889 167.715 381.337 81.8317 522.347 19.2449C392.961 23.2401 287.942 119.255 251.56 237.905Z" fill="#64B32D"/>
</svg>
